<svg id="visual" viewBox="0 0 900 600" width="900" height="600" xmlns="http://www.w3.org/2000/svg"
    xmlns:xlink="http://www.w3.org/1999/xlink" version="1.1">
    <rect x="0" y="0" width="900" height="600" fill="#FF0066"></rect>
    <path
        d="M0 260L10 263.3C20 266.7 40 273.3 60 272.2C80 271 100 262 120 262.5C140 263 160 273 180 269.2C200 265.3 220 247.7 240 243C260 238.3 280 246.7 300 252.3C320 258 340 261 360 272C380 283 400 302 420 305.3C440 308.7 460 296.3 480 271C500 245.7 520 207.3 540 196.3C560 185.3 580 201.7 600 216.8C620 232 640 246 660 242.3C680 238.7 700 217.3 720 213.8C740 210.3 760 224.7 780 243.3C800 262 820 285 840 291.2C860 297.3 880 286.7 890 281.3L900 276L900 601L890 601C880 601 860 601 840 601C820 601 800 601 780 601C760 601 740 601 720 601C700 601 680 601 660 601C640 601 620 601 600 601C580 601 560 601 540 601C520 601 500 601 480 601C460 601 440 601 420 601C400 601 380 601 360 601C340 601 320 601 300 601C280 601 260 601 240 601C220 601 200 601 180 601C160 601 140 601 120 601C100 601 80 601 60 601C40 601 20 601 10 601L0 601Z"
        fill="#0066ff"></path>
    <path
        d="M0 357L10 345.7C20 334.3 40 311.7 60 291.5C80 271.3 100 253.7 120 264.3C140 275 160 314 180 330.7C200 347.3 220 341.7 240 326.8C260 312 280 288 300 282.7C320 277.3 340 290.7 360 307.8C380 325 400 346 420 340.7C440 335.3 460 303.7 480 293.2C500 282.7 520 293.3 540 305.7C560 318 580 332 600 339.5C620 347 640 348 660 351.7C680 355.3 700 361.7 720 356.3C740 351 760 334 780 332.3C800 330.7 820 344.3 840 333C860 321.7 880 285.3 890 267.2L900 249L900 601L890 601C880 601 860 601 840 601C820 601 800 601 780 601C760 601 740 601 720 601C700 601 680 601 660 601C640 601 620 601 600 601C580 601 560 601 540 601C520 601 500 601 480 601C460 601 440 601 420 601C400 601 380 601 360 601C340 601 320 601 300 601C280 601 260 601 240 601C220 601 200 601 180 601C160 601 140 601 120 601C100 601 80 601 60 601C40 601 20 601 10 601L0 601Z"
        fill="#1795fe"></path>
    <path
        d="M0 317L10 325.5C20 334 40 351 60 359.5C80 368 100 368 120 358.2C140 348.3 160 328.7 180 333C200 337.3 220 365.7 240 368.2C260 370.7 280 347.3 300 350.3C320 353.3 340 382.7 360 383C380 383.3 400 354.7 420 337.8C440 321 460 316 480 322C500 328 520 345 540 366.7C560 388.3 580 414.7 600 422.7C620 430.7 640 420.3 660 404.5C680 388.7 700 367.3 720 370.5C740 373.7 760 401.3 780 415.2C800 429 820 429 840 423.7C860 418.3 880 407.7 890 402.3L900 397L900 601L890 601C880 601 860 601 840 601C820 601 800 601 780 601C760 601 740 601 720 601C700 601 680 601 660 601C640 601 620 601 600 601C580 601 560 601 540 601C520 601 500 601 480 601C460 601 440 601 420 601C400 601 380 601 360 601C340 601 320 601 300 601C280 601 260 601 240 601C220 601 200 601 180 601C160 601 140 601 120 601C100 601 80 601 60 601C40 601 20 601 10 601L0 601Z"
        fill="#4facf7"></path>
    <path
        d="M0 423L10 425.2C20 427.3 40 431.7 60 428.7C80 425.7 100 415.3 120 421C140 426.7 160 448.3 180 461.2C200 474 220 478 240 466.3C260 454.7 280 427.3 300 421C320 414.7 340 429.3 360 435.8C380 442.3 400 440.7 420 435.5C440 430.3 460 421.7 480 414.8C500 408 520 403 540 412.5C560 422 580 446 600 448.8C620 451.7 640 433.3 660 436.5C680 439.7 700 464.3 720 465.3C740 466.3 760 443.7 780 428.5C800 413.3 820 405.7 840 399.8C860 394 880 390 890 388L900 386L900 601L890 601C880 601 860 601 840 601C820 601 800 601 780 601C760 601 740 601 720 601C700 601 680 601 660 601C640 601 620 601 600 601C580 601 560 601 540 601C520 601 500 601 480 601C460 601 440 601 420 601C400 601 380 601 360 601C340 601 320 601 300 601C280 601 260 601 240 601C220 601 200 601 180 601C160 601 140 601 120 601C100 601 80 601 60 601C40 601 20 601 10 601L0 601Z"
        fill="#1795fe"></path>
    <path
        d="M0 487L10 495.5C20 504 40 521 60 527.5C80 534 100 530 120 528.8C140 527.7 160 529.3 180 520.7C200 512 220 493 240 489.8C260 486.7 280 499.3 300 512.2C320 525 340 538 360 539.3C380 540.7 400 530.3 420 519.2C440 508 460 496 480 496.7C500 497.3 520 510.7 540 518C560 525.3 580 526.7 600 520.2C620 513.7 640 499.3 660 489.2C680 479 700 473 720 477C740 481 760 495 780 501.3C800 507.7 820 506.3 840 506.8C860 507.3 880 509.7 890 510.8L900 512L900 601L890 601C880 601 860 601 840 601C820 601 800 601 780 601C760 601 740 601 720 601C700 601 680 601 660 601C640 601 620 601 600 601C580 601 560 601 540 601C520 601 500 601 480 601C460 601 440 601 420 601C400 601 380 601 360 601C340 601 320 601 300 601C280 601 260 601 240 601C220 601 200 601 180 601C160 601 140 601 120 601C100 601 80 601 60 601C40 601 20 601 10 601L0 601Z"
        fill="#0066ff"></path>
</svg>