<svg id="visual" viewBox="0 0 900 600" width="900" height="600" xmlns="http://www.w3.org/2000/svg"
    xmlns:xlink="http://www.w3.org/1999/xlink" version="1.1">
    <rect x="0" y="0" width="900" height="600" fill="#FF0066"></rect>
    <g transform="translate(454.4644894623732 282.7206490703849)">
        <path
            d="M150.7 -162.5C196 -141.6 233.9 -94.8 229.9 -50.4C225.9 -6.1 180.1 35.7 146.5 75.9C113 116.2 91.7 154.9 55 181.4C18.2 208 -34 222.4 -67.4 202.6C-100.8 182.9 -115.3 128.9 -150.2 80.8C-185.1 32.6 -240.3 -9.7 -239.1 -46.6C-237.9 -83.5 -180.3 -114.9 -131.1 -135.1C-81.8 -155.2 -40.9 -164.1 5.9 -171.1C52.7 -178.1 105.4 -183.3 150.7 -162.5"
            fill="#BB004B"></path>
    </g>
</svg>